HIERARCHY
ROOT Hips
{
  OFFSET 0.000940514 47.6841 -0.128968
  CHANNELS 6 Xposition Yposition Zposition Zrotation Xrotation Yrotation
  JOINT RightHipJoint
  {
    OFFSET 0 0 0
    CHANNELS 3 Zrotation Xrotation Yrotation
    JOINT RightUpLeg
    {
      OFFSET -6.08134 -3.8863 0.128968
      CHANNELS 3 Zrotation Xrotation Yrotation
      JOINT RightLeg
      {
        OFFSET -0.557246 -16.0178 0.0626011
        CHANNELS 3 Zrotation Xrotation Yrotation
        JOINT RightFoot
        {
          OFFSET -0.113211 -17.963 0.310195
          CHANNELS 3 Zrotation Xrotation Yrotation
          JOINT RightToeBase
          {
            OFFSET -0.663182 -7.38523 8.38825
            CHANNELS 3 Zrotation Xrotation Yrotation
            End Site
            {
              OFFSET -0.406279 0.043209 5.537
            }
          }
        }
      }
    }
  }
  JOINT LeftHipJoint
  {
    OFFSET 0 0 0
    CHANNELS 3 Zrotation Xrotation Yrotation
    JOINT LeftUpLeg
    {
      OFFSET 6.08134 -3.8863 0.128968
      CHANNELS 3 Zrotation Xrotation Yrotation
      JOINT LeftLeg
      {
        OFFSET 0.557298 -16.0178 0.0567459
        CHANNELS 3 Zrotation Xrotation Yrotation
        JOINT LeftFoot
        {
          OFFSET 0.113211 -17.963 0.3102
          CHANNELS 3 Zrotation Xrotation Yrotation
          JOINT LeftToeBase
          {
            OFFSET 0.663182 -7.38523 8.38825
            CHANNELS 3 Zrotation Xrotation Yrotation
            End Site
            {
              OFFSET 0.406279 0.043209 5.537
            }
          }
        }
      }
    }
  }
  JOINT LowerBack
  {
    OFFSET 0 0 0
    CHANNELS 3 Zrotation Xrotation Yrotation
    JOINT Spine
    {
      OFFSET 0 5.0443 -0.164042
      CHANNELS 3 Zrotation Xrotation Yrotation
      JOINT Spine1
      {
        OFFSET 0 6.7752 -0.262859
        CHANNELS 3 Zrotation Xrotation Yrotation
        JOINT Spine2
        {
          OFFSET 0 7.06989 -0.278313
          CHANNELS 3 Zrotation Xrotation Yrotation
          JOINT RightShoulder
          {
            OFFSET -3.78479 6.42979 -0.288035
            CHANNELS 3 Zrotation Xrotation Yrotation
            JOINT RightArm
            {
              OFFSET -6.31165 -2.71771 0.0219277
              CHANNELS 3 Zrotation Xrotation Yrotation
              JOINT RightForeArm
              {
                OFFSET -11.5936 -0.943256 -0.406295
                CHANNELS 3 Zrotation Xrotation Yrotation
                JOINT RightHand
                {
                  OFFSET -17.7496 -0.164857 0.501109
                  CHANNELS 3 Zrotation Xrotation Yrotation
                  End Site
                  {
                    OFFSET -8.18929 -0.905915 0.215009
                  }
                }
              }
            }
          }
          JOINT LeftShoulder
          {
            OFFSET 3.78479 6.42979 -0.288035
            CHANNELS 3 Zrotation Xrotation Yrotation
            JOINT LeftArm
            {
              OFFSET 6.31165 -2.71771 0.0219277
              CHANNELS 3 Zrotation Xrotation Yrotation
              JOINT LeftForeArm
              {
                OFFSET 11.5936 -0.943256 -0.406295
                CHANNELS 3 Zrotation Xrotation Yrotation
                JOINT LeftHand
                {
                  OFFSET 17.7496 -0.164858 0.501109
                  CHANNELS 3 Zrotation Xrotation Yrotation
                  End Site
                  {
                    OFFSET 8.18929 -0.905915 0.215009
                  }
                }
              }
            }
          }
          JOINT Neck
          {
            OFFSET 0 10.3326 -0.261975
            CHANNELS 3 Zrotation Xrotation Yrotation
            JOINT Head
            {
              OFFSET 0 12.4977 0.713112
              CHANNELS 3 Zrotation Xrotation Yrotation
              End Site
              {
                OFFSET 0 26.9967 0
              }
            }
          }
        }
      }
    }
  }
}
MOTION
Frames:	17
Frame Time:	0.0333333
0.000940514 47.6841 -0.128968 0 0 -0 0 0 -0 1.12873 -0.715468 0.0159467 0.000747495 2.54283 -0.0153933 -1.12936 -1.82699 -0.0365799 2.11728e-23 -2.3697e-23 -0 0 0 -0 -1.1319 -0.105693 -0.0042419 -0.000103502 1.37037 0.00317567 1.13221 -1.26441 0.0260543 2.71148e-23 3.55455e-23 -7.40531e-25 0 0 -0 0 0 -0 0 0 -0 0 0 -0 0 0 -0 -5.59419e-05 6.06983e-06 -7.27955e-05 5.12995e-05 -6.12313e-06 6.9914e-05 4.64239e-06 5.3361e-08 2.88149e-06 0 0 -0 5.2934e-05 9.29816e-06 6.94475e-05 -4.74912e-05 -9.2981e-06 -6.70996e-05 -5.44281e-06 1.11518e-13 -2.34788e-06 0 0 -0 0 0 -0 
16.7704 47.8443 8.0789 0.955788 -3.39451 -1.8404 -4.47266e-16 0 -7.95139e-16 0.520929 4.46123 -9.14935 0.358479 5.64404 -0.410679 -14.7908 -2.84283 -0.473419 3.86424 -14.4203 -3.6608 -4.47266e-16 0 -7.95139e-16 -0.799378 5.63735 8.32043 -1.49665 7.23736 -2.93687 4.58564 -10.2588 0.411905 0.740271 -0.601918 -2.99758 -4.47266e-16 0 -7.95139e-16 -0.507768 0.612264 0.501393 -1.02096 1.22004 1.00828 -1.02096 1.22004 1.00828 22.2137 4.48602 12.1178 56.1089 15.626 3.45368 4.81827 -7.61949 10.3151 3.28757 0.164227 5.72134 -29.3291 3.08587 -5.19908 -45.5022 23.913 -13.1724 -5.48193 -18.5751 -1.28898 -11.1831 0.473811 -4.75979 7.13125 2.15819 -2.07009 -5.45522 1.49912 1.48663 
16.7988 47.8419 8.06898 1.01732 -3.71025 -1.74145 3.23025e-16 1.59028e-15 1.98785e-16 0.4006 4.79263 -9.33013 0.39143 5.64682 -0.337671 -14.8637 -2.81071 -0.47236 3.85646 -14.3919 -3.76582 3.23025e-16 1.59028e-15 1.98785e-16 -1.009 6.16844 8.20866 -1.34777 6.87117 -2.86854 4.4797 -10.2239 0.399906 0.761388 -0.401733 -3.12144 3.23025e-16 1.59028e-15 1.98785e-16 -0.511923 0.674843 0.492725 -1.02973 1.34522 0.991565 -1.02973 1.34522 0.991565 22.1518 4.46852 12.0885 56.1877 15.836 3.4091 4.72506 -7.09833 10.4109 3.04468 0.142823 5.34445 -29.4907 3.10843 -5.22335 -45.1477 23.7594 -13.2322 -5.48647 -21.2817 -0.573884 -12.2817 0.628831 -5.77629 6.98891 2.20216 -2.09092 -5.25995 1.41469 1.37402 
16.7525 47.84 8.04694 0.96724 -2.99546 -1.75207 -8.69683e-17 7.95139e-16 -3.97569e-16 0.735871 4.05196 -8.87913 0.238559 5.35188 -0.67942 -15.1724 -2.2882 -0.409483 3.79655 -14.146 -4.31173 -8.69683e-17 7.95139e-16 -3.97569e-16 -0.809478 5.197 8.12424 -1.37466 7.16197 -2.88052 4.29898 -10.2783 0.385463 0.742351 0.0680989 -3.11807 -8.69683e-17 7.95139e-16 -3.97569e-16 -0.440096 0.512406 0.501409 -0.884711 1.02094 1.0068 -0.884711 1.02093 1.0068 21.8308 4.34798 11.835 56.2275 16.0866 3.59889 4.47288 -5.70898 10.0445 2.82212 0.119353 4.85723 -30.3311 3.20457 -5.28917 -44.3993 26.0504 -12.9064 -5.98616 -19.9918 -2.08061 -9.7879 0.340995 -4.01948 6.43337 2.83956 -2.11475 -4.86124 0.550489 1.07868 
16.7586 47.8388 8.03916 0.959748 -2.93287 -1.6904 -2.11209e-16 -7.95139e-16 3.97569e-16 0.737098 4.04157 -8.8906 0.259471 5.26995 -0.926716 -15.0981 -2.34435 -0.413011 3.80939 -14.1979 -4.03458 -2.11209e-16 -7.95139e-16 3.97569e-16 -0.915908 5.01652 8.03804 -1.38396 7.14336 -3.28463 4.87592 -9.78029 0.421866 0.70558 0.276637 -2.99947 -2.11209e-16 -7.95139e-16 3.97569e-16 -0.468138 0.520289 0.526614 -0.941103 1.03622 1.05753 -0.941103 1.03622 1.05753 22.0809 4.32798 11.639 55.798 15.7083 4.44309 4.04429 -3.11175 8.55119 4.11983 0.175184 4.87152 -29.9572 3.20648 -5.3843 -45.227 23.7324 -13.2935 -5.47857 -17.9146 -0.821552 -10.3696 0.397259 -4.37665 6.63017 2.74743 -2.26835 -4.88354 0.505106 0.988704 
16.7745 47.8492 8.0331 0.935193 -3.01017 -1.70012 -7.45443e-17 0 3.97569e-16 0.635298 4.07898 -8.9192 0.237057 5.49818 -0.76388 -14.6172 -2.75526 -0.456547 3.68439 -13.669 -4.21563 -7.45443e-17 0 3.97569e-16 -0.870927 5.16347 8.18155 -1.52593 7.01008 -3.38884 5.14367 -9.66855 0.439904 0.702294 0.29678 -2.98923 -7.45443e-17 0 3.97569e-16 -0.398234 0.545512 0.482297 -0.801101 1.08765 0.968441 -0.8011 1.08765 0.96844 21.6084 4.28105 11.7127 55.9822 15.7709 4.54597 4.08762 -3.22338 8.33336 3.47877 0.151475 4.9843 -30.8961 3.19961 -5.14211 -44.2234 24.6971 -13.1873 -5.69954 -19.1064 -1.34987 -10.2278 0.388908 -4.34342 5.89758 2.76891 -1.91985 -4.58455 0.365406 1.02618 
16.7845 47.8538 8.02199 0.993549 -2.92066 -1.76421 -2.48481e-17 -7.95139e-16 3.97569e-16 0.534604 3.90682 -8.96268 0.251043 5.54364 -0.59369 -14.6055 -2.65912 -0.445234 3.69293 -13.7049 -4.26524 -2.48481e-17 -7.95139e-16 3.97569e-16 -1.05217 5.20347 8.00985 -1.44945 6.71003 -3.2341 5.17242 -9.5327 0.436375 0.682541 0.129438 -2.87859 -2.48481e-17 -7.95139e-16 3.97569e-16 -0.377709 0.554099 0.52183 -0.760495 1.10473 1.04737 -0.760495 1.10473 1.04737 21.5576 4.28227 11.7424 55.9146 16.0568 4.50563 4.2595 -3.81369 8.36707 3.60641 0.154898 4.9227 -30.8712 3.23103 -5.23387 -43.7648 26.1283 -13.3936 -6.07583 -20.5673 -1.75147 -10.2577 0.39917 -4.44506 5.99866 2.64601 -1.98473 -4.98281 0.465577 1.08325 
16.7966 47.8544 8.01297 1.02313 -2.83236 -1.7919 4.96962e-17 0 -3.97569e-16 0.539777 3.8089 -8.98144 0.262233 5.41122 -0.504052 -14.8935 -2.37561 -0.415315 3.73809 -13.8955 -4.25949 4.96962e-17 0 -3.97569e-16 -1.02679 5.12166 8.01864 -1.49793 6.66328 -3.14518 4.96163 -9.50414 0.415906 0.692127 0.359496 -2.95778 4.96962e-17 0 -3.97569e-16 -0.479713 0.522035 0.556664 -0.964543 1.03937 1.11775 -0.964543 1.03937 1.11775 22.1761 4.35953 11.7001 55.7972 15.9964 4.39466 4.22931 -3.73542 8.50292 3.28505 0.147156 5.12843 -29.7267 3.18271 -5.37285 -45.2463 23.8706 -13.517 -5.48374 -18.1754 -0.458832 -10.0084 0.386686 -4.41407 6.90913 2.73325 -2.26246 -5.37094 0.524484 1.1948 
16.7954 47.8597 8.01015 1.02972 -2.86786 -1.81031 3.47873e-16 0 -0 0.44926 3.81035 -8.97102 0.218369 5.66112 -0.696794 -14.4105 -2.95303 -0.479825 3.5869 -13.2639 -3.92811 3.47873e-16 0 -0 -0.975779 5.17749 8.07711 -1.53652 6.7211 -3.11174 4.71223 -9.67711 0.400334 0.696062 0.814716 -3.04772 3.47873e-16 0 -0 -0.471116 0.545664 0.534817 -0.947362 1.08689 1.07418 -0.947362 1.08689 1.07418 22.0992 4.36411 11.7552 55.7769 15.8923 4.47491 4.22314 -3.8404 8.48386 3.54504 0.15625 5.04759 -29.8226 3.15761 -5.28104 -45.0999 24.0973 -13.424 -5.54292 -18.3697 -0.75403 -10.0727 0.392748 -4.45437 6.4431 2.76238 -2.12998 -4.8823 0.530922 1.06703 
16.7961 47.8524 8.01374 0.979551 -2.91088 -1.80323 -2.48481e-16 3.97569e-16 -0 0.592075 3.91063 -8.944 0.264132 5.38684 -0.59383 -14.908 -2.42129 -0.419304 3.73926 -13.8947 -4.19027 -2.48481e-16 3.97569e-16 -0 -0.914596 5.04011 8.11763 -1.53591 7.01156 -3.22569 4.9172 -9.7074 0.420915 0.712542 0.155342 -3.00785 -2.48481e-16 3.97569e-16 -0 -0.417994 0.561231 0.531958 -0.841249 1.11855 1.06808 -0.841248 1.11855 1.06808 21.7185 4.2996 11.7215 55.928 15.791 4.55171 4.08722 -3.20259 8.37055 3.26966 0.147262 5.15399 -30.3385 3.177 -5.21114 -44.5383 24.558 -13.4316 -5.68312 -18.6857 -1.00489 -10.1474 0.402213 -4.52853 6.06391 2.79439 -2.09489 -4.83506 0.81783 0.982571 
16.7939 47.834 8.0253 0.78858 -3.08126 -1.88737 -6.21202e-17 0 -7.95139e-16 1.01663 4.33063 -8.79715 0.299389 4.66459 -0.341381 -15.9966 -1.35903 -0.285576 3.95407 -14.8346 -4.82069 -6.21202e-17 0 -7.95139e-16 -0.619529 4.96249 8.36141 -1.59747 7.64216 -3.34563 4.95873 -10.1207 0.441987 0.65781 0.214751 -2.79128 -6.21202e-17 0 -7.95139e-16 -0.394817 0.598394 0.522181 -0.79514 1.19315 1.04856 -0.79514 1.19315 1.04856 21.7813 4.3362 11.8174 55.7943 15.8141 4.52282 4.07396 -3.30479 8.55059 3.36888 0.146511 4.97887 -30.3345 3.1388 -5.10763 -44.4076 24.6256 -13.4298 -5.66495 -18.6165 -0.955623 -10.2679 0.394137 -4.38338 5.9377 2.87551 -1.85206 -4.67038 0.726492 1.14412 
16.8055 47.8359 8.02218 0.932941 -2.9284 -1.84778 4.96962e-17 0 -0 0.69437 4.03926 -8.93747 0.334073 5.13777 -0.715922 -15.3186 -2.23799 -0.400934 3.80386 -14.1754 -4.01458 4.96962e-17 0 -0 -1.00233 4.92258 8.15827 -1.55894 7.17512 -3.25915 5.63475 -9.49273 0.477096 0.67257 -0.173208 -2.78721 4.96962e-17 0 -0 -0.365627 0.590362 0.503422 -0.736479 1.17748 1.01068 -0.736479 1.17748 1.01068 21.7198 4.32481 11.8085 55.5594 16.0415 4.59181 4.32054 -4.39189 8.55087 3.78172 0.165875 5.02464 -30.6859 3.15417 -5.06795 -43.8514 25.9122 -13.4204 -6.05534 -20.2353 -1.74069 -10.01 0.371538 -4.2407 5.71819 2.80216 -1.83528 -4.65103 0.777149 1.08461 
16.8138 47.8387 8.03345 0.837504 -3.01452 -1.77468 9.93923e-17 -7.95139e-16 3.97569e-16 0.770674 4.15986 -8.87874 0.283379 5.14241 -0.763144 -15.0884 -2.23264 -0.395641 3.79354 -14.1305 -3.99775 9.93923e-17 -7.95139e-16 3.97569e-16 -0.752889 4.93952 8.28285 -1.57516 7.51202 -3.26377 5.08524 -10.0068 0.449993 0.817553 0.511606 -3.49641 9.93923e-17 -7.95139e-16 3.97569e-16 -0.407758 0.587559 0.506014 -0.820753 1.17149 1.01628 -0.820753 1.17149 1.01628 21.9735 4.36997 11.8384 55.6703 16.3686 4.49395 4.7631 -6.28935 8.5254 3.24294 0.147076 5.18922 -30.1593 3.12502 -5.11088 -44.6827 24.1776 -13.3838 -5.58155 -18.2591 -0.973899 -10.2079 0.391143 -4.37701 6.06151 3.02088 -1.96019 -4.67286 0.771282 1.08614 
16.817 47.8468 8.03891 0.893315 -2.90207 -1.75088 3.47873e-16 1.59028e-15 -0 0.696792 4.01382 -8.90037 0.27732 5.24977 -0.678632 -15.0616 -2.33718 -0.410328 3.75555 -13.9711 -4.11316 3.47873e-16 1.59028e-15 -0 -0.764449 4.92745 8.20881 -1.56698 7.35238 -3.34544 4.7392 -10.0397 0.418098 0.732413 0.916833 -3.21271 3.47873e-16 1.59028e-15 -0 -0.404394 0.57106 0.531342 -0.814127 1.13832 1.06678 -0.814127 1.13832 1.06678 21.9858 4.29041 11.5561 55.565 16.4021 4.58689 4.70533 -5.93515 8.56526 3.07342 0.143813 5.36022 -30.1732 3.16736 -5.22419 -44.5254 24.4661 -13.5012 -5.63041 -18.3158 -0.925907 -10.4273 0.399391 -4.37459 5.97066 2.98491 -2.03374 -4.59426 0.833652 0.966949 
16.8321 47.8475 8.0507 0.859019 -2.94606 -1.69456 -9.93923e-17 0 -3.97569e-16 0.61313 4.02028 -8.95011 0.304361 5.41162 -0.722328 -14.6571 -2.45602 -0.417594 3.71353 -13.7885 -4.19633 -9.93923e-17 0 -3.97569e-16 -0.808679 4.9604 8.26488 -1.63249 7.33289 -3.47096 5.27781 -9.90419 0.46229 0.751628 0.385846 -3.20795 -9.93923e-17 0 -3.97569e-16 -0.41293 0.574595 0.515168 -0.831077 1.14543 1.03454 -0.831076 1.14543 1.03454 21.9995 4.33672 11.7097 55.6784 16.4036 4.51432 4.83573 -6.58537 8.49073 2.6323 0.127175 5.52684 -29.834 3.14963 -5.25572 -45.1004 23.8278 -13.4371 -5.5125 -18.0975 -0.793144 -10.3208 0.386292 -4.27508 6.12081 2.93315 -2.0155 -4.51834 1.05782 1.02178 
16.842 47.828 8.0416 1.02087 -2.79599 -1.55662 -3.72721e-17 -7.95139e-16 -7.95139e-16 0.454856 3.81759 -9.04898 0.445328 5.28486 -0.524254 -15.1435 -1.94569 -0.363062 3.93059 -14.7379 -4.86777 -3.72721e-17 -7.95139e-16 -7.95139e-16 -0.900471 4.59746 8.19464 -1.65352 7.66714 -3.41448 5.18219 -10.0647 0.46146 0.773441 0.461049 -3.31012 -3.72721e-17 -7.95139e-16 -7.95139e-16 -0.41773 0.559798 0.485949 -0.840253 1.11601 0.976038 -0.840253 1.11601 0.976038 21.8841 4.31289 11.6848 55.6236 16.5093 4.53194 4.87081 -6.67287 8.53193 2.78385 0.137727 5.66411 -30.121 3.15199 -5.19414 -44.7569 24.1885 -13.4999 -5.5842 -18.185 -0.980851 -10.4052 0.400628 -4.39732 5.91087 2.80094 -1.93189 -4.5333 1.12678 1.03685 
16.8459 47.8339 8.05506 0.955066 -2.85735 -1.60747 -4.5969e-16 0 -3.97569e-16 0.436134 3.85353 -9.02774 0.434412 5.39942 -0.258676 -14.7796 -1.96606 -0.358122 3.90254 -14.6235 -5.215 -4.5969e-16 0 -3.97569e-16 -0.885772 4.62323 8.2084 -1.63346 7.71221 -3.51857 5.38903 -9.89688 0.474177 0.755339 0.11736 -3.18041 -4.5969e-16 0 -3.97569e-16 -0.400985 0.567093 0.449637 -0.806463 1.131 0.903294 -0.806463 1.131 0.903295 21.8359 4.39858 12.0079 55.7142 16.4606 4.34725 4.89254 -6.93082 8.76321 2.66799 0.131871 5.66074 -30.1978 3.09972 -5.03248 -44.9751 23.5495 -13.3365 -5.45325 -17.977 -0.984665 -10.2378 0.381349 -4.25548 5.56229 2.90971 -1.74762 -4.06527 0.997436 0.99851 
